HIERARCHY
ROOT SpineBase
{
  OFFSET 0.000000 0.000000 0.000000
  CHANNELS 6 Xposition Yposition Zposition Zrotation Xrotation Yrotation
  JOINT SpineMid
  {
    OFFSET 0.000000 31.643902 0.000000
    CHANNELS 3 Zrotation Xrotation Yrotation
    JOINT SpineShoulder
    {
      OFFSET 0.115116 23.377603 -0.619352
      CHANNELS 3 Zrotation Xrotation Yrotation
      JOINT Neck
      {
        OFFSET -0.032406 7.760406 -0.475378
        CHANNELS 3 Zrotation Xrotation Yrotation
        JOINT Head
        {
          OFFSET 4.040461 11.105764 -0.055829
          CHANNELS 3 Zrotation Xrotation Yrotation
          End Site
          {
            OFFSET 0 0 0
          }
        }
      }
      JOINT ShoulderLeft
      {
        OFFSET -14.381470 -2.197441 -9.219181
        CHANNELS 3 Zrotation Xrotation Yrotation
        JOINT ElbowLeft
        {
          OFFSET -5.733822 -27.074311 -3.392932
          CHANNELS 3 Zrotation Xrotation Yrotation
          JOINT WristLeft
          {
            OFFSET 1.308017 -21.777647 -5.203916
            CHANNELS 3 Zrotation Xrotation Yrotation
            JOINT HandLeft
            {
              OFFSET 0.124096 -6.271402 0.013686
              CHANNELS 3 Zrotation Xrotation Yrotation
              JOINT HandTipLeft
              {
                OFFSET 1.460357 -7.147564 -0.872627
                CHANNELS 3 Zrotation Xrotation Yrotation
                End Site
                {
                  OFFSET 0 0 0
                }
              }
              JOINT ThumbLeft
              {
                OFFSET -3.692371 -0.198234 -2.183981
                CHANNELS 3 Zrotation Xrotation Yrotation
                End Site
                {
                  OFFSET 0 0 0
                }
              }
            }
          }
        }
      }
      JOINT ShoulderRight
      {
        OFFSET 14.346697 -5.849004 4.308216
        CHANNELS 3 Zrotation Xrotation Yrotation
        JOINT ElbowRight
        {
          OFFSET 1.586518 -26.984115 4.025653
          CHANNELS 3 Zrotation Xrotation Yrotation
          JOINT WristRight
          {
            OFFSET 0.427526 -25.395654 -2.307506
            CHANNELS 3 Zrotation Xrotation Yrotation
            JOINT HandRight
            {
              OFFSET -1.306107 -5.187025 -0.940838
              CHANNELS 3 Zrotation Xrotation Yrotation
              JOINT HandTipRight
              {
                OFFSET 0.097006 -7.277065 0.836654
                CHANNELS 3 Zrotation Xrotation Yrotation
                End Site
                {
                  OFFSET 0 0 0
                }
              }
              JOINT ThumbRight
              {
                OFFSET -3.559673 0.663678 -3.779933
                CHANNELS 3 Zrotation Xrotation Yrotation
                End Site
                {
                  OFFSET 0 0 0
                }
              }
            }
          }
        }
      }
    }
  }
  JOINT HipLeft
  {
    OFFSET -6.988880 1.023975 -5.736732
    CHANNELS 3 Zrotation Xrotation Yrotation
    JOINT KneeLeft
    {
      OFFSET -13.002252 -29.237372 0.052699
      CHANNELS 3 Zrotation Xrotation Yrotation
      JOINT AnkleLeft
      {
        OFFSET -8.523903 -36.131706 4.026414
        CHANNELS 3 Zrotation Xrotation Yrotation
        JOINT FootLeft
        {
          OFFSET 3.840777 -6.059723 -5.197779
          CHANNELS 3 Zrotation Xrotation Yrotation
          End Site
          {
            OFFSET 0 0 0
          }
        }
      }
    }
  }
  JOINT HipRight
  {
    OFFSET 5.801150 0.720872 -0.677523
    CHANNELS 3 Zrotation Xrotation Yrotation
    JOINT KneeRight
    {
      OFFSET -1.048797 -29.699605 8.079685
      CHANNELS 3 Zrotation Xrotation Yrotation
      JOINT AnkleRight
      {
        OFFSET -10.170091 -21.750610 6.622317
        CHANNELS 3 Zrotation Xrotation Yrotation
        JOINT FootRight
        {
          OFFSET 3.440524 -4.755063 -6.113702
          CHANNELS 3 Zrotation Xrotation Yrotation
          End Site
          {
            OFFSET 0 0 0
          }
        }
      }
    }
  }
}
MOTION
Frames: 8
Frame Time: 0.033333
80.537129 73.326559 409.964188 -0.000000 0.000000 -21.581710 -0.000000 0.000000 21.581710 -0.000000 0.000000 0.000000 -0.000000 0.000000 0.000000 0.000000 0.000000 0.000000 -0.000000 0.000000 0.000000 -0.000000 0.000000 0.000000 -0.000000 0.000000 0.000000 -0.000000 0.000000 0.000000 0.000000 0.000000 0.000000 0.000000 0.000000 0.000000 -0.000000 0.000000 0.000000 -0.000000 0.000000 0.000000 -0.000000 0.000000 0.000000 -0.000000 0.000000 0.000000 0.000000 0.000000 0.000000 0.000000 0.000000 0.000000 -0.000000 0.000000 21.581710 -0.000000 0.000000 0.000000 -0.000000 0.000000 0.000000 0.000000 0.000000 0.000000 -0.000000 0.000000 21.581710 -0.000000 0.000000 0.000000 -0.000000 0.000000 0.000000 0.000000 0.000000 0.000000
80.437133 73.446998 409.873627 -0.131148 0.138518 -21.703856 0.173076 -0.080198 21.704135 -0.000000 0.000000 0.000000 -0.000000 0.000000 0.000000 0.000000 0.000000 0.000000 -0.000000 0.000000 0.000000 -0.000000 0.000000 0.000000 -0.000000 0.000000 0.000000 2.633241 -1.509117 -0.593371 0.000000 0.000000 0.000000 0.000000 0.000000 0.000000 -0.000000 0.000000 0.000000 -0.000000 0.000000 0.000000 0.314421 -1.175096 0.242715 -0.648284 5.956254 -0.192450 0.000000 0.000000 0.000000 0.000000 0.000000 0.000000 0.173076 -0.080198 21.704135 -0.000000 0.000000 0.000000 -1.568762 -0.764645 0.862992 0.000000 0.000000 0.000000 0.173076 -0.080198 21.704135 -0.000000 0.000000 0.000000 -2.899109 -1.644546 2.591485 0.000000 0.000000 0.000000
80.357357 73.537231 409.807911 -0.234459 0.244341 -21.819701 0.308481 -0.139688 21.820577 -0.000000 0.000000 0.000000 -0.000000 0.000000 0.000000 0.000000 0.000000 0.000000 -0.000000 0.000000 0.000000 -0.000000 0.000000 0.000000 -0.000000 0.000000 0.000000 4.677398 -2.693323 -1.006205 0.000000 0.000000 0.000000 0.000000 0.000000 0.000000 -0.000000 0.000000 0.000000 -0.000000 0.000000 0.000000 0.522854 -2.143658 0.456859 -1.105960 10.967452 -0.326627 0.000000 0.000000 0.000000 0.000000 0.000000 0.000000 0.308481 -0.139688 21.820577 -0.000000 0.000000 0.000000 -2.948532 -1.937070 1.291706 0.000000 0.000000 0.000000 1.064149 0.073093 22.036336 -1.761272 0.024292 -0.480578 -2.854656 -1.863469 3.930662 0.000000 0.000000 0.000000
80.297800 73.597256 409.767039 -0.309557 0.317055 -21.931271 0.405575 -0.178488 21.932759 -0.000000 0.000000 0.000000 -0.000000 0.000000 0.000000 0.000000 0.000000 0.000000 -0.000000 0.000000 0.000000 -0.000000 0.000000 0.000000 -0.846692 -0.216798 -0.007741 6.991044 -3.325524 -1.294183 0.000000 0.000000 0.000000 0.000000 0.000000 0.000000 -0.000000 0.000000 0.000000 -0.000000 0.000000 0.000000 0.637247 -2.940079 0.645149 -1.386251 14.859012 -0.434181 0.000000 0.000000 0.000000 0.000000 0.000000 0.000000 1.112001 -0.576614 22.220470 -0.503439 0.635671 -0.280264 -4.158297 -3.512514 1.276729 0.000000 0.000000 0.000000 1.462509 0.099470 22.233303 -2.537586 0.133959 -0.727513 -1.926487 -1.054274 4.116967 0.000000 0.000000 0.000000
80.258464 73.627075 409.751012 -0.356169 0.356371 -22.040014 0.463873 -0.196667 22.041917 -0.000000 0.000000 0.000000 -0.000000 0.000000 0.000000 0.000000 0.000000 0.000000 -0.000000 0.000000 0.000000 -0.155665 0.894136 0.091953 -0.681267 -1.294958 -0.115274 7.889268 -3.655199 -1.472210 0.000000 0.000000 0.000000 0.000000 0.000000 0.000000 -0.000000 0.000000 0.000000 0.073661 0.886378 0.007654 0.592220 -4.476513 0.811678 -1.496223 17.515974 -0.539787 0.000000 0.000000 0.000000 0.000000 0.000000 0.000000 1.269256 -0.654943 22.372992 -0.570376 0.730280 -0.321454 -5.223613 -5.495131 0.803544 0.000000 0.000000 0.000000 1.771324 0.118162 22.411660 -3.240573 0.307859 -0.976789 0.313465 0.830907 3.336680 0.000000 0.000000 0.000000
80.239347 73.626686 409.759831 -0.374128 0.362124 -22.146822 0.483041 -0.194359 22.148824 -0.000000 0.000000 0.000000 -0.000000 0.000000 0.000000 0.000000 0.000000 0.000000 -0.000000 0.000000 0.000000 -0.219889 0.985198 0.113390 -0.488565 -1.627021 -0.139993 8.135288 -3.602445 -1.560321 0.000000 0.000000 0.000000 0.000000 0.000000 0.000000 -0.000000 0.000000 0.000000 0.110614 1.006401 0.005916 0.503482 -5.119390 0.957210 -1.441432 18.875840 -0.660163 0.000000 0.000000 0.000000 0.000000 0.000000 0.000000 1.319053 -0.677776 22.496334 -0.587488 0.766447 -0.337218 -6.176944 -7.894758 -0.148877 0.000000 0.000000 0.000000 1.990464 0.128511 22.572093 -3.867667 0.544776 -1.226749 4.167237 3.952432 1.331845 0.000000 0.000000 0.000000
80.191199 73.624573 409.754377 -0.416682 0.380612 -22.230820 0.529711 -0.194663 22.233104 -0.000000 0.000000 0.000000 -0.000000 0.000000 0.000000 0.000000 0.000000 0.000000 -0.000000 0.000000 0.000000 -0.339670 1.084130 0.149187 0.005038 -2.239163 -0.175984 7.688030 -2.936829 -1.587848 0.000000 0.000000 0.000000 0.000000 0.000000 0.000000 -0.000000 0.000000 0.000000 0.116023 1.124407 0.007242 -0.075167 -5.629922 1.128605 -0.586799 17.242114 -0.945636 0.000000 0.000000 0.000000 0.000000 0.000000 0.000000 1.463411 -0.687574 22.602501 -0.672620 0.813826 -0.357431 -8.707522 -16.213226 -4.944961 0.000000 0.000000 0.000000 2.243480 0.013985 22.704689 -4.446598 1.071421 -1.534767 15.289028 6.395752 -9.330802 0.000000 0.000000 0.000000
80.197613 73.566156 409.803280 -0.399215 0.331661 -22.360940 0.495375 -0.154837 22.362764 -0.000000 0.000000 0.000000 -0.000000 0.000000 0.000000 0.000000 0.000000 0.000000 -0.000000 0.000000 0.000000 -0.398694 1.133216 0.166920 0.273973 -2.016485 -0.180125 6.323451 -2.550088 -1.342938 0.000000 0.000000 0.000000 0.000000 0.000000 0.000000 0.064285 0.819340 0.057364 0.068880 0.300009 -0.050914 -0.058009 -6.166618 1.265045 -0.238776 13.479093 -1.164970 0.000000 0.000000 0.000000 0.000000 0.000000 0.000000 1.367592 -0.617343 22.708414 -0.626121 0.763303 -0.335601 -8.008770 -14.138647 -3.673870 0.000000 0.000000 0.000000 2.317446 -0.014699 22.857919 -4.909330 1.513949 -1.805918 24.712576 4.604192 -19.584853 0.000000 0.000000 0.000000
